<?xml version="1.0" standalone="no"?>
<!DOCTYPE svg PUBLIC "-//W3C//DTD SVG 20010904//EN"
 "http://www.w3.org/TR/2001/REC-SVG-20010904/DTD/svg10.dtd">
<svg version="1.0" xmlns="http://www.w3.org/2000/svg"
 width="320.000000pt" height="320.000000pt" viewBox="0 0 320.000000 320.000000"
 preserveAspectRatio="xMidYMid meet">
<metadata>
Created by potrace 1.11, written by Peter Selinger 2001-2013
</metadata>
<g transform="translate(0.000000,320.000000) scale(0.100000,-0.100000)"
fill="#000000" stroke="none">
<path d="M362 2411 c-4 -11 -7 -230 -3 -278 1 -10 65 -13 284 -13 l282 0 0
-427 c-1 -421 -2 -429 -24 -478 -44 -98 -103 -131 -224 -123 -91 6 -156 38
-228 115 -43 45 -54 52 -65 41 -33 -35 -194 -232 -194 -239 0 -4 27 -31 60
-62 145 -132 332 -185 572 -163 31 3 74 10 95 15 21 6 40 10 43 9 17 -6 144
76 191 122 68 67 105 143 130 263 16 81 18 148 19 659 l0 568 -22 1 c-13 0
-223 1 -467 2 -369 2 -444 0 -449 -12z"/>
<path d="M1610 2410 c-1 -52 -1 -1415 -1 -1500 l1 -105 187 0 188 0 0 220 0
220 240 6 c268 6 338 18 463 75 125 57 206 132 262 242 40 81 57 155 59 263 5
280 -154 481 -442 559 -111 30 -164 33 -575 34 -333 1 -382 -1 -382 -14z m843
-320 c31 -12 71 -33 87 -47 103 -86 119 -268 35 -378 -61 -81 -154 -107 -379
-107 -89 0 -172 0 -186 1 l-25 1 1 273 c1 149 2 275 3 278 0 3 92 4 204 3 181
-1 208 -4 260 -24z"/>
</g>
</svg>
