<svg xmlns="http://www.w3.org/2000/svg" viewBox="0 0 100 100"><defs><style>.a{fill:#e7e9f1;}.b{fill:#bdc3d8;}.c{fill:#fff;}.d{fill:#21365f;}</style></defs><circle class="a" cx="48.5" cy="76.25" r="14"/><circle class="a" cx="21.75" cy="34.25" r="12"/><circle class="a" cx="70.25" cy="29.75" r="20"/><path class="b" d="M80.5,83h-62a1,1,0,0,1-1-1V31l12-12h51a1,1,0,0,1,1,1V82A1,1,0,0,1,80.5,83Z"/><path class="c" d="M75.5,78h-58V31l12-12h47V77A1,1,0,0,1,75.5,78Z"/><path class="d" d="M80.5,83.75h-62A1.75,1.75,0,0,1,16.75,82V31a.75.75,0,0,1,.22-.53l12-12a.75.75,0,0,1,.53-.22h51A1.75,1.75,0,0,1,82.25,20V82A1.75,1.75,0,0,1,80.5,83.75ZM18.25,31.31V82a.25.25,0,0,0,.25.25h62a.25.25,0,0,0,.25-.25V20a.25.25,0,0,0-.25-.25H29.81Z"/><path class="d" d="M68.5,70.75h-2a.75.75,0,0,1,0-1.5h1.25V68a.75.75,0,0,1,1.5,0v2A.76.76,0,0,1,68.5,70.75Z"/><path class="d" d="M62.72,70.75H59a.75.75,0,1,1,0-1.5h3.77a.75.75,0,0,1,0,1.5Zm-7.55,0H51.39a.75.75,0,0,1,0-1.5h3.78a.75.75,0,0,1,0,1.5Zm-7.56,0H43.83a.75.75,0,0,1,0-1.5h3.78a.75.75,0,0,1,0,1.5Zm-7.55,0H36.28a.75.75,0,0,1,0-1.5h3.78a.75.75,0,0,1,0,1.5Z"/><path class="d" d="M32.5,70.75h-2a.76.76,0,0,1-.75-.75V68a.75.75,0,0,1,1.5,0v1.25H32.5a.75.75,0,0,1,0,1.5Z"/><path class="d" d="M30.5,65a.75.75,0,0,1-.75-.75V60.44a.75.75,0,0,1,1.5,0v3.78A.75.75,0,0,1,30.5,65Zm0-7.55a.76.76,0,0,1-.75-.75V52.89a.75.75,0,0,1,1.5,0v3.78A.76.76,0,0,1,30.5,57.42Zm0-7.56a.76.76,0,0,1-.75-.75V45.33a.75.75,0,0,1,1.5,0v3.78A.76.76,0,0,1,30.5,49.86Zm0-7.55a.76.76,0,0,1-.75-.75V37.78a.75.75,0,0,1,1.5,0v3.78A.76.76,0,0,1,30.5,42.31Z"/><path class="d" d="M30.5,34.75a.76.76,0,0,1-.75-.75V32a.76.76,0,0,1,.75-.75h2a.75.75,0,0,1,0,1.5H31.25V34A.76.76,0,0,1,30.5,34.75Z"/><path class="d" d="M62.72,32.75H58.94a.75.75,0,0,1,0-1.5h3.78a.75.75,0,0,1,0,1.5Zm-7.55,0H51.39a.75.75,0,0,1,0-1.5h3.78a.75.75,0,0,1,0,1.5Zm-7.56,0H43.83a.75.75,0,0,1,0-1.5h3.78a.75.75,0,0,1,0,1.5Zm-7.55,0H36.28a.75.75,0,0,1,0-1.5h3.78a.75.75,0,0,1,0,1.5Z"/><path class="d" d="M68.5,34.75a.76.76,0,0,1-.75-.75V32.75H66.5a.75.75,0,0,1,0-1.5h2a.76.76,0,0,1,.75.75v2A.76.76,0,0,1,68.5,34.75Z"/><path class="d" d="M68.5,65a.75.75,0,0,1-.75-.75V60.44a.75.75,0,0,1,1.5,0v3.78A.75.75,0,0,1,68.5,65Zm0-7.55a.76.76,0,0,1-.75-.75V52.89a.75.75,0,0,1,1.5,0v3.78A.76.76,0,0,1,68.5,57.42Zm0-7.56a.76.76,0,0,1-.75-.75V45.33a.75.75,0,0,1,1.5,0v3.78A.76.76,0,0,1,68.5,49.86Zm0-7.55a.76.76,0,0,1-.75-.75V37.78a.75.75,0,0,1,1.5,0v3.78A.76.76,0,0,1,68.5,42.31Z"/><rect class="b" x="27.5" y="29" width="6" height="6" rx="1"/><path class="c" d="M28.5,29h3a0,0,0,0,1,0,0v3a1,1,0,0,1-1,1h-3a0,0,0,0,1,0,0V30A1,1,0,0,1,28.5,29Z"/><path class="d" d="M32.5,35.75h-4A1.75,1.75,0,0,1,26.75,34V30a1.75,1.75,0,0,1,1.75-1.75h4A1.75,1.75,0,0,1,34.25,30v4A1.76,1.76,0,0,1,32.5,35.75Zm-4-6a.25.25,0,0,0-.25.25v4a.25.25,0,0,0,.25.25h4a.25.25,0,0,0,.25-.25V30a.25.25,0,0,0-.25-.25Z"/><rect class="b" x="65.5" y="29" width="6" height="6" rx="1"/><path class="c" d="M66.5,29h3a0,0,0,0,1,0,0v3a1,1,0,0,1-1,1h-3a0,0,0,0,1,0,0V30A1,1,0,0,1,66.5,29Z"/><path class="d" d="M70.5,35.75h-4A1.76,1.76,0,0,1,64.75,34V30a1.75,1.75,0,0,1,1.75-1.75h4A1.75,1.75,0,0,1,72.25,30v4A1.75,1.75,0,0,1,70.5,35.75Zm-4-6a.25.25,0,0,0-.25.25v4a.25.25,0,0,0,.25.25h4a.25.25,0,0,0,.25-.25V30a.25.25,0,0,0-.25-.25Z"/><rect class="b" x="27.5" y="67" width="6" height="6" rx="1"/><path class="c" d="M28.5,67h3a0,0,0,0,1,0,0v3a1,1,0,0,1-1,1h-3a0,0,0,0,1,0,0V68A1,1,0,0,1,28.5,67Z"/><path class="d" d="M32.5,73.75h-4A1.75,1.75,0,0,1,26.75,72V68a1.75,1.75,0,0,1,1.75-1.75h4A1.76,1.76,0,0,1,34.25,68v4A1.75,1.75,0,0,1,32.5,73.75Zm-4-6a.25.25,0,0,0-.25.25v4a.25.25,0,0,0,.25.25h4a.25.25,0,0,0,.25-.25V68a.25.25,0,0,0-.25-.25Z"/><rect class="b" x="65.5" y="67" width="6" height="6" rx="1"/><path class="c" d="M66.5,67h3a0,0,0,0,1,0,0v3a1,1,0,0,1-1,1h-3a0,0,0,0,1,0,0V68A1,1,0,0,1,66.5,67Z"/><path class="d" d="M70.5,73.75h-4A1.75,1.75,0,0,1,64.75,72V68a1.76,1.76,0,0,1,1.75-1.75h4A1.75,1.75,0,0,1,72.25,68v4A1.75,1.75,0,0,1,70.5,73.75Zm-4-6a.25.25,0,0,0-.25.25v4a.25.25,0,0,0,.25.25h4a.25.25,0,0,0,.25-.25V68a.25.25,0,0,0-.25-.25Z"/><polygon class="b" points="17.5 31 29.5 19 29.5 31 17.5 31"/><polygon class="c" points="17.5 31 29.5 19 24.5 31 17.5 31"/><path class="d" d="M29.5,31.75h-12a.74.74,0,0,1-.69-.46.76.76,0,0,1,.16-.82l12-12a.75.75,0,0,1,.82-.16.74.74,0,0,1,.46.69V31A.76.76,0,0,1,29.5,31.75Zm-10.19-1.5h9.44V20.81Z"/><polygon class="c" points="57.07 65 62.5 65 54.5 37 44.5 37 36.5 65 41.93 65 43.87 58.21 55.13 58.21 57.07 65"/><polygon class="b" points="36.5 65 41.93 65 42.46 63 37.07 63 36.5 65"/><path class="b" d="M54.5,37H52.07l7.25,25.36a.5.5,0,0,1-.48.64H56.5l.57,2H62.5Z"/><path class="d" d="M62.5,65.75H57.07a.75.75,0,0,1-.72-.54L54.56,59H44.44l-1.79,6.25a.75.75,0,0,1-.72.54H36.5a.75.75,0,0,1-.72-1l8-28a.75.75,0,0,1,.72-.54h10a.75.75,0,0,1,.72.54l8,28a.75.75,0,0,1-.72,1Zm-4.86-1.5h3.87l-7.58-26.5H45.07l-7.58,26.5h3.87L43.15,58a.75.75,0,0,1,.72-.54H55.13a.74.74,0,0,1,.72.54Z"/><polygon class="c" points="45.3 53.21 48.5 42 50.5 42 53.7 53.21 45.3 53.21"/><path class="b" d="M53.7,53.21,50.5,42h-2l-.21.76,2.23,7.81a.5.5,0,0,1-.48.64H45.87l-.57,2Z"/><path class="d" d="M53.7,54H45.3a.75.75,0,0,1-.72-1l3.2-11.21a.75.75,0,0,1,.72-.54h2a.75.75,0,0,1,.72.54L54.42,53a.75.75,0,0,1-.72,1Zm-7.41-1.5h6.42l-2.78-9.71h-.86Z"/><path class="d" d="M22.5,71.75a.76.76,0,0,1-.75-.75V57.3a.75.75,0,0,1,1.5,0V71A.76.76,0,0,1,22.5,71.75Z"/><path class="d" d="M22.5,54.05a.75.75,0,0,1-.75-.75V51a.75.75,0,0,1,1.5,0v2.3A.75.75,0,0,1,22.5,54.05Z"/><path class="d" d="M76.5,56.75a.76.76,0,0,1-.75-.75V46.3a.75.75,0,0,1,1.5,0V56A.76.76,0,0,1,76.5,56.75Z"/><path class="d" d="M76.5,43.05a.76.76,0,0,1-.75-.75V40a.75.75,0,0,1,1.5,0v2.3A.76.76,0,0,1,76.5,43.05Z"/></svg>