<svg xmlns="http://www.w3.org/2000/svg" viewBox="0 0 100 100"><defs><style>.a{fill:#e7e9f1;}.b{fill:#bdc3d8;}.c{fill:#fff;}.d{fill:#21365f;}</style></defs><circle class="a" cx="72.75" cy="54.02" r="14"/><circle class="a" cx="36" cy="76.77" r="12"/><circle class="a" cx="33.25" cy="31.23" r="20"/><path class="b" d="M18,74v5a2,2,0,0,0,2,2H80a2,2,0,0,0,2-2V74Z"/><path class="c" d="M18,74v3.5H71.5A3.49,3.49,0,0,0,75,74H18Z"/><polygon class="b" points="18 74.02 82 74.02 76 61.02 24 61.02 18 74.02"/><path class="c" d="M19.73,71h52.7a1.65,1.65,0,0,0,1.5-2.34l-3.48-7.53a.23.23,0,0,0-.2-.13H24.14a.21.21,0,0,0-.19.13l-4.42,9.56A.22.22,0,0,0,19.73,71Z"/><path class="d" d="M80,81.77H20A2.75,2.75,0,0,1,17.26,79V74a.75.75,0,0,1,.75-.75H82a.75.75,0,0,1,.75.75v5A2.75,2.75,0,0,1,80,81.77Zm-61.24-7V79A1.25,1.25,0,0,0,20,80.27H80A1.25,1.25,0,0,0,81.25,79V74.77Z"/><path class="d" d="M82,74.77H18a.77.77,0,0,1-.64-.34.8.8,0,0,1-.05-.72l6-13a.76.76,0,0,1,.68-.44H76a.76.76,0,0,1,.69.44l6,13a.8.8,0,0,1,0,.72A.77.77,0,0,1,82,74.77Zm-62.82-1.5H80.83l-5.31-11.5h-51Z"/><path class="d" d="M24,70.44a.73.73,0,0,1-.75-.75.75.75,0,0,1,.22-.53.75.75,0,0,1,1.28.53.75.75,0,0,1-.22.53A.79.79,0,0,1,24,70.44Z"/><path class="d" d="M71.25,69.69a.76.76,0,0,1,.75-.75h0a.75.75,0,0,1,.75.75h0a.74.74,0,0,1-.75.75h0A.75.75,0,0,1,71.25,69.69Zm-4,0a.75.75,0,0,1,.75-.75h0a.75.75,0,0,1,.74.75h0a.74.74,0,0,1-.74.75h0A.74.74,0,0,1,67.26,69.69Zm-4,0a.76.76,0,0,1,.75-.75h0a.75.75,0,0,1,.75.75h0a.74.74,0,0,1-.75.75h0A.75.75,0,0,1,63.25,69.69Zm-4,0a.76.76,0,0,1,.75-.75h0a.75.75,0,0,1,.75.75h0a.74.74,0,0,1-.75.75h0A.75.75,0,0,1,59.25,69.69Zm-4,0a.75.75,0,0,1,.74-.75h0a.75.75,0,0,1,.75.75h0a.74.74,0,0,1-.75.75h0A.74.74,0,0,1,55.26,69.69Zm-4,0a.76.76,0,0,1,.75-.75h0a.76.76,0,0,1,.76.75h0a.75.75,0,0,1-.76.75h0A.75.75,0,0,1,51.25,69.69Zm-4,0a.76.76,0,0,1,.75-.75h0a.75.75,0,0,1,.75.75h0a.74.74,0,0,1-.75.75h0A.75.75,0,0,1,47.25,69.69Zm-4,0a.75.75,0,0,1,.75-.75h0a.75.75,0,0,1,.74.75h0a.74.74,0,0,1-.74.75h0A.74.74,0,0,1,43.26,69.69Zm-4,0a.75.75,0,0,1,.75-.75h0a.76.76,0,0,1,.75.75h0a.75.75,0,0,1-.75.75h0A.74.74,0,0,1,39.26,69.69Zm-4,0a.76.76,0,0,1,.75-.75h0a.75.75,0,0,1,.75.75h0a.74.74,0,0,1-.75.75h0A.75.75,0,0,1,35.25,69.69Zm-4,0a.75.75,0,0,1,.74-.75h0a.75.75,0,0,1,.75.75h0a.74.74,0,0,1-.75.75h0A.74.74,0,0,1,31.26,69.69Zm-4,0a.75.75,0,0,1,.75-.75h0a.76.76,0,0,1,.75.75h0a.75.75,0,0,1-.75.75h0A.74.74,0,0,1,27.26,69.69Z"/><path class="d" d="M76,70.44a.73.73,0,0,1-.53-.22.72.72,0,0,1-.23-.53.76.76,0,0,1,.23-.53.74.74,0,0,1,1.27.53.74.74,0,0,1-.21.53A.79.79,0,0,1,76,70.44Z"/><path class="d" d="M26,66.11a.77.77,0,0,1-.54-.22.78.78,0,0,1-.21-.53.75.75,0,0,1,.22-.53.76.76,0,0,1,1.05,0,.72.72,0,0,1,.23.53.75.75,0,0,1-.22.53A.77.77,0,0,1,26,66.11Z"/><path class="d" d="M69.25,65.36a.75.75,0,0,1,.75-.75h0a.74.74,0,0,1,.75.75h0a.75.75,0,0,1-.75.75h0A.76.76,0,0,1,69.25,65.36Zm-4,0a.75.75,0,0,1,.75-.75h0a.74.74,0,0,1,.75.75h0a.75.75,0,0,1-.75.75h0A.76.76,0,0,1,65.25,65.36Zm-4,0a.75.75,0,0,1,.75-.75h0a.74.74,0,0,1,.75.75h0a.75.75,0,0,1-.75.75h0A.76.76,0,0,1,61.25,65.36Zm-4,0a.75.75,0,0,1,.76-.75h0a.75.75,0,0,1,.75.75h0a.76.76,0,0,1-.75.75h0A.76.76,0,0,1,57.25,65.36Zm-4,0a.74.74,0,0,1,.74-.75h0a.74.74,0,0,1,.75.75h0a.75.75,0,0,1-.75.75h0A.75.75,0,0,1,53.26,65.36Zm-4,0a.75.75,0,0,1,.75-.75h0a.74.74,0,0,1,.75.75h0a.75.75,0,0,1-.75.75h0A.76.76,0,0,1,49.25,65.36Zm-4,0a.75.75,0,0,1,.76-.75h0a.75.75,0,0,1,.75.75h0a.76.76,0,0,1-.75.75h0A.76.76,0,0,1,45.25,65.36Zm-4,0a.74.74,0,0,1,.75-.75h0a.75.75,0,0,1,.75.75h0a.76.76,0,0,1-.75.75h0A.75.75,0,0,1,41.26,65.36Zm-4,0a.74.74,0,0,1,.74-.75h0a.74.74,0,0,1,.75.75h0a.75.75,0,0,1-.75.75h0A.75.75,0,0,1,37.26,65.36Zm-4,0a.75.75,0,0,1,.75-.75h0a.74.74,0,0,1,.75.75h0a.75.75,0,0,1-.75.75h0A.76.76,0,0,1,33.25,65.36Zm-4,0a.74.74,0,0,1,.75-.75h0a.75.75,0,0,1,.75.75h0a.76.76,0,0,1-.75.75h0A.75.75,0,0,1,29.26,65.36Z"/><path class="d" d="M74,66.11a.77.77,0,0,1-.53-.22.75.75,0,0,1,0-1.06.77.77,0,0,1,1.06,0,.75.75,0,0,1,0,1.06A.73.73,0,0,1,74,66.11Z"/><path class="d" d="M54,78.27H46a.75.75,0,0,1,0-1.5h8a.75.75,0,0,1,0,1.5Z"/><path class="b" d="M26,29H74a2,2,0,0,1,2,2V61a0,0,0,0,1,0,0H24a0,0,0,0,1,0,0V31A2,2,0,0,1,26,29Z"/><path class="c" d="M26,29H73a0,0,0,0,1,0,0V54a4,4,0,0,1-4,4H24a0,0,0,0,1,0,0V31A2,2,0,0,1,26,29Z"/><path class="d" d="M76,61.77H24a.75.75,0,0,1-.75-.75V31A2.76,2.76,0,0,1,26,28.27H74A2.75,2.75,0,0,1,76.75,31V61A.74.74,0,0,1,76,61.77Zm-51.25-1.5h50.5V31A1.25,1.25,0,0,0,74,29.77H26A1.26,1.26,0,0,0,24.75,31Z"/><path class="b" d="M68,55H32a2,2,0,0,1-2-2V19a2,2,0,0,1,2-2H62l8,8V53A2,2,0,0,1,68,55Z"/><path class="c" d="M65,49H30V19a2,2,0,0,1,2-2H62l5,5V47A2,2,0,0,1,65,49Z"/><path class="d" d="M68,55.77H32A2.75,2.75,0,0,1,29.25,53V19A2.76,2.76,0,0,1,32,16.27H62a.75.75,0,0,1,.53.22l8,8a.71.71,0,0,1,.22.53V53A2.75,2.75,0,0,1,68,55.77Zm-36-38A1.26,1.26,0,0,0,30.75,19V53A1.26,1.26,0,0,0,32,54.27H68A1.25,1.25,0,0,0,69.25,53V25.33l-7.56-7.56Z"/><path class="d" d="M82,19.77H78a.75.75,0,0,1,0-1.5h4a.75.75,0,0,1,0,1.5Z"/><path class="d" d="M80,21.77a.75.75,0,0,1-.75-.75V17a.75.75,0,1,1,1.5,0v4A.74.74,0,0,1,80,21.77Z"/><circle class="d" cx="80.01" cy="25.02" r="0.75"/><circle class="d" cx="80.01" cy="28.02" r="0.75"/><circle class="d" cx="80.01" cy="32.02" r="0.75"/><circle class="d" cx="80.01" cy="38.02" r="0.75"/><path class="d" d="M22,27.77H18a.75.75,0,0,1,0-1.5h4a.75.75,0,0,1,0,1.5Z"/><path class="d" d="M20,29.77a.75.75,0,0,1-.75-.75V25a.75.75,0,1,1,1.5,0v4A.74.74,0,0,1,20,29.77Z"/><circle class="d" cx="20" cy="33.02" r="0.75"/><circle class="d" cx="20" cy="36.02" r="0.75"/><circle class="d" cx="20" cy="40.02" r="0.75"/><circle class="d" cx="20" cy="46.02" r="0.75"/><polygon class="b" points="62.01 17.02 62.01 25.02 70 25.02 62.01 17.02"/><polygon class="c" points="62.01 21.02 62.01 25.02 70 25.02 62.01 21.02"/><path class="d" d="M70,25.77H62a.75.75,0,0,1-.75-.75V17a.76.76,0,0,1,.47-.69.74.74,0,0,1,.81.16l8,8A.75.75,0,0,1,70,25.77Zm-7.25-1.5h5.44l-5.44-5.44Z"/><path class="d" d="M42.5,44.77a.74.74,0,0,1-.48-.18l-7-6a.73.73,0,0,1-.26-.57.75.75,0,0,1,.26-.57l7-6a.75.75,0,0,1,1,1.14L36.66,38,43,43.45a.75.75,0,0,1,.08,1.06A.73.73,0,0,1,42.5,44.77Z"/><path class="d" d="M57.51,44.77a.76.76,0,0,1-.57-.26A.75.75,0,0,1,57,43.45L63.35,38,57,32.59a.75.75,0,0,1-.08-1.06A.76.76,0,0,1,58,31.45l7,6a.78.78,0,0,1,.26.57.77.77,0,0,1-.26.57l-7,6A.78.78,0,0,1,57.51,44.77Z"/><path class="d" d="M46,47.77a.8.8,0,0,1-.3-.06.75.75,0,0,1-.38-1l8-18a.75.75,0,0,1,1.37.61l-8,18A.74.74,0,0,1,46,47.77Z"/></svg>