<svg xmlns="http://www.w3.org/2000/svg" viewBox="0 0 100 100"><defs><style>.a{fill:#e7e9f1;}.b{fill:#fff;}.c{fill:#bdc3d8;}.d{fill:#21365f;}</style></defs><circle class="a" cx="31.5" cy="73.5" r="14"/><circle class="a" cx="68.5" cy="75.5" r="12"/><circle class="a" cx="65.25" cy="32.5" r="20"/><path class="b" d="M34.82,82.25V76.48a3,3,0,0,0-3.36-3.22c-2.35,0-8.69-.28-9.26-3.26-.7-3.68.1-9.68.1-9.68a45,45,0,0,1-5.45-2.59c-2.48-1.44-.89-3.69-.29-4.4,4.8-5.69,5.58-9.4,5.58-9.4a25.68,25.68,0,1,1,48,12.78h0c-2.17,3.75-5,7.84-6.37,10.83-2,4.41-2.1,14.71-2.1,14.71Z"/><path class="c" d="M73.5,43.93A25.7,25.7,0,0,0,38.82,19.87,25.7,25.7,0,0,1,52.1,56.71h0c-2.17,3.75-5,7.84-6.38,10.83-2,4.41-2.09,14.71-2.09,14.71h18s.1-10.3,2.1-14.71c1.35-3,4.2-7.08,6.37-10.83h0A25.6,25.6,0,0,0,73.5,43.93Z"/><path class="d" d="M61.63,83H34.82a.75.75,0,0,1-.75-.75V76.47A2.31,2.31,0,0,0,31.46,74c-3.46,0-9.35-.5-10-3.87a37.21,37.21,0,0,1,0-9.34,44.25,44.25,0,0,1-5-2.43,3.13,3.13,0,0,1-1.68-2.17A4.38,4.38,0,0,1,16,52.85c4.26-5,5.27-8.5,5.41-9A26.43,26.43,0,1,1,70.75,57.08l0,0c-.8,1.38-1.7,2.82-2.56,4.2a61.71,61.71,0,0,0-3.76,6.53c-1.91,4.22-2,14.3-2,14.4A.75.75,0,0,1,61.63,83ZM35.57,81.5H60.9C61,79,61.3,71.08,63,67.23a65.05,65.05,0,0,1,3.85-6.7c.87-1.39,1.77-2.82,2.56-4.2l0,0A24.93,24.93,0,1,0,22.89,43.93a.77.77,0,0,1,0,.15c0,.16-.87,4-5.74,9.74A3.1,3.1,0,0,0,16.27,56a1.71,1.71,0,0,0,.95,1.13,47.48,47.48,0,0,0,5.35,2.54.75.75,0,0,1,.47.79c0,.06-.77,5.94-.1,9.45.37,2,4.82,2.65,8.52,2.65a3.78,3.78,0,0,1,4.11,4Z"/><path class="b" d="M79.5,45.25A19,19,0,1,0,47.35,58.93a10.66,10.66,0,0,1,3.2,7.69v3.63h19.9V66.42a10.67,10.67,0,0,1,3.33-7.61A18.88,18.88,0,0,0,79.5,45.25Z"/><path class="c" d="M59.46,26.27l-.24,0a24,24,0,0,1-8.67,42.18v1.77h19.9V66.42a10.67,10.67,0,0,1,3.33-7.61A19,19,0,0,0,59.46,26.27Z"/><path class="d" d="M70.45,71H50.55a.75.75,0,0,1-.75-.75V66.62a9.91,9.91,0,0,0-3-7.15,19.75,19.75,0,1,1,27.48-.13,9.87,9.87,0,0,0-3.11,7.08v3.83A.75.75,0,0,1,70.45,71ZM51.3,69.5H69.7V66.42a11.39,11.39,0,0,1,3.56-8.15A18.24,18.24,0,0,0,59.5,27,18.23,18.23,0,0,0,47.87,58.39a11.42,11.42,0,0,1,3.43,8.23Z"/><path class="b" d="M52.5,70.25h16a0,0,0,0,1,0,0v2a2,2,0,0,1-2,2h-12a2,2,0,0,1-2-2v-2A0,0,0,0,1,52.5,70.25Z"/><path class="b" d="M66.5,78.25h-12a2,2,0,0,1-2-2h0a2,2,0,0,1,2-2h12a2,2,0,0,1,2,2h0A2,2,0,0,1,66.5,78.25Z"/><path class="c" d="M56.5,70.25h12a0,0,0,0,1,0,0v2a2,2,0,0,1-2,2h-8a2,2,0,0,1-2-2v-2A0,0,0,0,1,56.5,70.25Z"/><path class="c" d="M66.5,78.25h-4a2,2,0,0,1-2-2h0a2,2,0,0,1,2-2h4a2,2,0,0,1,2,2h0A2,2,0,0,1,66.5,78.25Z"/><path class="d" d="M66.5,75h-12a2.75,2.75,0,0,1-2.75-2.75v-2a.75.75,0,0,1,.75-.75h16a.75.75,0,0,1,.75.75v2A2.75,2.75,0,0,1,66.5,75ZM53.25,71v1.25A1.25,1.25,0,0,0,54.5,73.5h12a1.25,1.25,0,0,0,1.25-1.25V71Z"/><path class="d" d="M66.5,79h-12a2.75,2.75,0,0,1,0-5.5h12a2.75,2.75,0,0,1,0,5.5Zm-12-4a1.25,1.25,0,0,0,0,2.5h12a1.25,1.25,0,0,0,0-2.5Z"/><path class="b" d="M66.5,82.25h-12a2,2,0,0,1-2-2h0a2,2,0,0,1,2-2h12a2,2,0,0,1,2,2h0A2,2,0,0,1,66.5,82.25Z"/><path class="c" d="M66.5,82.25h-6a2,2,0,0,1-2-2h0a2,2,0,0,1,2-2h6a2,2,0,0,1,2,2h0A2,2,0,0,1,66.5,82.25Z"/><path class="d" d="M66.5,83h-12a2.75,2.75,0,0,1,0-5.5h12a2.75,2.75,0,0,1,0,5.5Zm-12-4a1.25,1.25,0,0,0,0,2.5h12a1.25,1.25,0,0,0,0-2.5Z"/><path class="b" d="M73.32,47.36a12.46,12.46,0,0,0,0-4.22l-4.42-.71a8.67,8.67,0,0,0-.47-1.13l2.63-3.63a13.17,13.17,0,0,0-3-3l-3.63,2.63a9.42,9.42,0,0,0-1.14-.47l-.7-4.43a13.35,13.35,0,0,0-2.11-.17h0a13.35,13.35,0,0,0-2.11.17l-.7,4.43a8.26,8.26,0,0,0-1.14.47l-3.63-2.63a12.77,12.77,0,0,0-3,3l2.63,3.63a8.67,8.67,0,0,0-.47,1.13l-4.42.71a12.46,12.46,0,0,0,0,4.22l4.42.7a9.42,9.42,0,0,0,.47,1.14l-2.63,3.63a13.17,13.17,0,0,0,3,3l3.63-2.63a8.26,8.26,0,0,0,1.14.47l.7,4.43a13.35,13.35,0,0,0,2.11.17h0a13.35,13.35,0,0,0,2.11-.17l.7-4.43a9.42,9.42,0,0,0,1.14-.47l3.63,2.63a13.59,13.59,0,0,0,3-3L68.43,49.2a9.42,9.42,0,0,0,.47-1.14Z"/><path class="c" d="M57.69,53.65l.7,4.43a13.35,13.35,0,0,0,2.11.17h0a13.35,13.35,0,0,0,2.11-.17l.7-4.43a9.42,9.42,0,0,0,1.14-.47l3.63,2.63a13.59,13.59,0,0,0,3-3L68.43,49.2a9.42,9.42,0,0,0,.47-1.14l4.42-.7a12.46,12.46,0,0,0,0-4.22l-4.42-.71a8.67,8.67,0,0,0-.47-1.13l1.1-1.52a14.17,14.17,0,0,0-1.6-.1,13,13,0,0,0-13,13A11.9,11.9,0,0,0,55,54.27l1.51-1.09A8.26,8.26,0,0,0,57.69,53.65Z"/><path class="b" d="M63.33,48.07a4,4,0,1,1,0-5.65A4,4,0,0,1,63.33,48.07Z"/><path class="c" d="M63.33,48.07a4,4,0,0,0,.89-4.28A4,4,0,0,0,59,49,4,4,0,0,0,63.33,48.07Z"/><path class="d" d="M60.5,50a4.75,4.75,0,1,1,4.75-4.75A4.75,4.75,0,0,1,60.5,50Zm0-8a3.25,3.25,0,1,0,3.25,3.25A3.25,3.25,0,0,0,60.5,42Z"/><path class="d" d="M40.32,33a.66.66,0,0,1-.4-.13.74.74,0,0,1-.23-1,25.68,25.68,0,0,1,1.75-2.39.75.75,0,1,1,1.16,1A23.9,23.9,0,0,0,41,32.65.75.75,0,0,1,40.32,33Z"/><path class="d" d="M42.08,61.37a.77.77,0,0,1-.58-.26A24.77,24.77,0,0,1,37.42,36.3a.75.75,0,1,1,1.39.55,23.29,23.29,0,0,0,3.84,23.29.76.76,0,0,1-.09,1.06A.74.74,0,0,1,42.08,61.37Z"/><path class="d" d="M60.5,59a13.7,13.7,0,0,1-2.23-.18.77.77,0,0,1-.62-.63l-.64-4L56.63,54l-3.27,2.38a.75.75,0,0,1-.88,0,13.69,13.69,0,0,1-3.15-3.16.75.75,0,0,1,0-.88l2.37-3.26-.16-.39-4-.63a.74.74,0,0,1-.62-.62,12.75,12.75,0,0,1-.19-2.23A12.94,12.94,0,0,1,46.94,43a.74.74,0,0,1,.62-.61l4-.64c.05-.13.11-.25.16-.38l-2.37-3.27a.74.74,0,0,1,0-.87,13.69,13.69,0,0,1,3.15-3.16.75.75,0,0,1,.88,0l3.27,2.37.38-.16.64-4a.74.74,0,0,1,.62-.62,13.9,13.9,0,0,1,4.46,0,.74.74,0,0,1,.62.62l.63,4,.39.16,3.27-2.37a.74.74,0,0,1,.87,0,13.54,13.54,0,0,1,3.16,3.16.74.74,0,0,1,0,.87l-2.37,3.27c.06.13.11.26.16.38l4,.64a.74.74,0,0,1,.62.62,13.18,13.18,0,0,1,0,4.46.74.74,0,0,1-.62.62l-4,.63c0,.13-.1.26-.16.39l2.37,3.26a.75.75,0,0,1,0,.88,13.94,13.94,0,0,1-3.16,3.16.74.74,0,0,1-.87,0L64.37,54,64,54.2l-.63,4a.77.77,0,0,1-.62.63A13.79,13.79,0,0,1,60.5,59ZM59,57.41a11.81,11.81,0,0,0,2.91,0l.62-3.88a.77.77,0,0,1,.5-.59,8.73,8.73,0,0,0,1-.43.73.73,0,0,1,.78.06l3.18,2.31a13.38,13.38,0,0,0,2.06-2.06l-2.31-3.18a.73.73,0,0,1-.06-.78,8.18,8.18,0,0,0,.43-1,.75.75,0,0,1,.59-.5l3.88-.62a11.81,11.81,0,0,0,0-2.91l-3.88-.62a.74.74,0,0,1-.59-.5,7.31,7.31,0,0,0-.44-1,.74.74,0,0,1,.07-.77l2.31-3.18a11.81,11.81,0,0,0-2.06-2.06l-3.18,2.31a.74.74,0,0,1-.77.06,9.6,9.6,0,0,0-1-.43.77.77,0,0,1-.51-.6L62,33.08a12.78,12.78,0,0,0-2.9,0L58.43,37a.77.77,0,0,1-.51.6,8.54,8.54,0,0,0-1,.43.74.74,0,0,1-.77-.07l-3.18-2.3a12.17,12.17,0,0,0-2.06,2.06l2.31,3.18a.74.74,0,0,1,.06.77,8.45,8.45,0,0,0-.43,1,.74.74,0,0,1-.59.5l-3.88.62a11.81,11.81,0,0,0,0,2.91l3.88.62a.75.75,0,0,1,.59.51,8.32,8.32,0,0,0,.43,1,.76.76,0,0,1-.06.78l-2.31,3.18a12.55,12.55,0,0,0,2.06,2.06l3.18-2.31a.73.73,0,0,1,.78-.06,7.94,7.94,0,0,0,1,.43.77.77,0,0,1,.51.59Zm14.28-10h0Z"/><path class="d" d="M70.5,21h-4a.75.75,0,0,1,0-1.5h4a.75.75,0,0,1,0,1.5Z"/><path class="d" d="M68.5,23a.76.76,0,0,1-.75-.75v-4a.75.75,0,0,1,1.5,0v4A.76.76,0,0,1,68.5,23Z"/><path class="d" d="M79.5,28h-4a.75.75,0,0,1,0-1.5h4a.75.75,0,0,1,0,1.5Z"/><path class="d" d="M77.5,30a.76.76,0,0,1-.75-.75v-4a.75.75,0,0,1,1.5,0v4A.76.76,0,0,1,77.5,30Z"/><path class="d" d="M76.5,75h-4a.75.75,0,0,1,0-1.5h4a.75.75,0,0,1,0,1.5Z"/><path class="d" d="M74.5,77a.75.75,0,0,1-.75-.75v-4a.75.75,0,0,1,1.5,0v4A.75.75,0,0,1,74.5,77Z"/><path class="d" d="M37.5,65h-4a.75.75,0,0,1,0-1.5h4a.75.75,0,0,1,0,1.5Z"/><path class="d" d="M35.5,67a.74.74,0,0,1-.75-.75v-4a.75.75,0,0,1,1.5,0v4A.75.75,0,0,1,35.5,67Z"/><path class="d" d="M33.5,34h-4a.75.75,0,0,1,0-1.5h4a.75.75,0,0,1,0,1.5Z"/><path class="d" d="M31.5,36a.75.75,0,0,1-.75-.75v-4a.75.75,0,0,1,1.5,0v4A.76.76,0,0,1,31.5,36Z"/></svg>