<svg xmlns="http://www.w3.org/2000/svg" viewBox="0 0 100 100"><defs><style>.a{fill:#e7e9f1;}.b{fill:#bdc3d8;}.c{fill:#fff;}.d{fill:#21365f;}</style></defs><circle class="a" cx="64.05" cy="23.5" r="14"/><circle class="a" cx="22.7" cy="46.5" r="12"/><circle class="a" cx="69.3" cy="70.5" r="20"/><rect class="b" x="19.2" y="17.5" width="64" height="48" rx="4"/><path class="c" d="M73.2,17.5h7a0,0,0,0,1,0,0v43a2,2,0,0,1-2,2h-5a0,0,0,0,1,0,0v-45A0,0,0,0,1,73.2,17.5Z"/><path class="c" d="M23.2,17.5h3a0,0,0,0,1,0,0v43a2,2,0,0,1-2,2h-5a0,0,0,0,1,0,0v-41A4,4,0,0,1,23.2,17.5Z"/><path class="d" d="M79.2,66.25h-56a4.75,4.75,0,0,1-4.75-4.75v-40a4.75,4.75,0,0,1,4.75-4.75h56A4.75,4.75,0,0,1,84,21.5v40A4.75,4.75,0,0,1,79.2,66.25Zm-56-48A3.26,3.26,0,0,0,20,21.5v40a3.26,3.26,0,0,0,3.25,3.25h56a3.25,3.25,0,0,0,3.25-3.25v-40a3.25,3.25,0,0,0-3.25-3.25Z"/><rect class="b" x="29.2" y="17.5" width="44" height="48"/><rect class="c" x="29.2" y="17.5" width="40" height="42"/><path class="d" d="M73.2,66.25h-44a.76.76,0,0,1-.75-.75v-48a.76.76,0,0,1,.75-.75h44a.75.75,0,0,1,.75.75v48A.75.75,0,0,1,73.2,66.25ZM30,64.75h42.5V18.25H30Z"/><rect class="b" x="37.87" y="28.17" width="26.67" height="26.67" rx="4"/><path class="c" d="M41.87,28.17H60.54a0,0,0,0,1,0,0V50.83a0,0,0,0,1,0,0H37.87a0,0,0,0,1,0,0V32.17A4,4,0,0,1,41.87,28.17Z"/><path class="d" d="M60.54,55.58H41.87a4.75,4.75,0,0,1-4.75-4.75V32.17a4.75,4.75,0,0,1,4.75-4.75H60.54a4.75,4.75,0,0,1,4.75,4.75V50.83A4.75,4.75,0,0,1,60.54,55.58ZM41.87,28.92a3.25,3.25,0,0,0-3.25,3.25V50.83a3.25,3.25,0,0,0,3.25,3.25H60.54a3.25,3.25,0,0,0,3.25-3.25V32.17a3.25,3.25,0,0,0-3.25-3.25Z"/><path class="c" d="M73.19,55.73a3.29,3.29,0,0,0-4.87-2.57,3.29,3.29,0,0,0-5.48-1.71,3.28,3.28,0,0,0-5.28,0V40a3,3,0,0,0-5.93,0V63.13a17.5,17.5,0,0,0-6.18-.56c-3.72.33-6.23,2.09-6.32,4.18a5.63,5.63,0,0,0,.38,2.85s4.91-1,6.57-.46c4.67,1.5,8.87,7,11.26,7H73.2V55.93A1.34,1.34,0,0,0,73.19,55.73Z"/><path class="b" d="M73.2,55.93a1.34,1.34,0,0,0,0-.2,3.29,3.29,0,0,0-4.87-2.57,3.29,3.29,0,0,0-5.48-1.71,3.28,3.28,0,0,0-5.28,0V40a3,3,0,0,0-5.93,0v.68a3.39,3.39,0,0,1,1-.15,2.74,2.74,0,0,1,3,2.47V54.44a3.29,3.29,0,0,1,5.28,0,3.29,3.29,0,0,1,5.48,1.71,3.29,3.29,0,0,1,4.87,2.57,1.34,1.34,0,0,1,0,.2V76.17h2Z"/><path class="d" d="M73.2,76.92H57.34c-1.41,0-3-1.29-5-2.93s-4.18-3.4-6.48-4.14c-1.07-.35-4.37.11-6.19.48a.76.76,0,0,1-.79-.34,6.14,6.14,0,0,1-.49-3.27c.11-2.57,2.92-4.53,7-4.9a18.68,18.68,0,0,1,5.49.35V40a3.75,3.75,0,0,1,7.43,0v9.86a4.18,4.18,0,0,1,4.62.6,4,4,0,0,1,2.16-.63,4.08,4.08,0,0,1,3.68,2.36A4.36,4.36,0,0,1,69.91,52a4,4,0,0,1,4,3.66,2,2,0,0,1,0,.27V76.17A.75.75,0,0,1,73.2,76.92ZM44.64,68.23a5.68,5.68,0,0,1,1.67.19c2.56.83,4.9,2.73,7,4.41,1.56,1.27,3.18,2.59,4.06,2.59H72.45V55.93s0-.12,0-.13a2.54,2.54,0,0,0-3.76-2,.77.77,0,0,1-.68,0,.76.76,0,0,1-.42-.52A2.53,2.53,0,0,0,63.35,52a.75.75,0,0,1-.58.2.74.74,0,0,1-.53-.3,2.53,2.53,0,0,0-4.08,0,.75.75,0,0,1-1.35-.45V40a2,2,0,0,0-2.21-1.72A2.05,2.05,0,0,0,52.38,40V63.13a.77.77,0,0,1-.3.6.74.74,0,0,1-.66.12,17.22,17.22,0,0,0-5.9-.54c-3.2.29-5.57,1.75-5.64,3.47a8.45,8.45,0,0,0,.13,2A28.74,28.74,0,0,1,44.64,68.23Z"/><rect class="b" x="57.34" y="76.17" width="15.86" height="5.33"/><path class="c" d="M57.34,76.17H70.2V78.5a1,1,0,0,1-1,1H57.34Z"/><path class="d" d="M73.2,82.25H57.34a.75.75,0,0,1-.75-.75V76.17a.75.75,0,0,1,.75-.75H73.2a.74.74,0,0,1,.75.75V81.5A.74.74,0,0,1,73.2,82.25Zm-15.11-1.5H72.45V76.92H58.09Z"/><path class="d" d="M78.2,48.25a.76.76,0,0,1-.75-.75v-12a.75.75,0,0,1,1.5,0v12A.75.75,0,0,1,78.2,48.25Z"/><path class="d" d="M24.2,44.75a.76.76,0,0,1-.75-.75V39A.75.75,0,0,1,25,39v5A.75.75,0,0,1,24.2,44.75Z"/><path class="d" d="M24.2,32.75a.76.76,0,0,1-.75-.75V27A.75.75,0,0,1,25,27v5A.75.75,0,0,1,24.2,32.75Z"/><path class="d" d="M24.2,56.75a.75.75,0,0,1-.75-.75V51A.75.75,0,0,1,25,51v5A.74.74,0,0,1,24.2,56.75Z"/><circle class="d" cx="78.2" cy="51.5" r="1"/><path class="d" d="M78.59,74.25H77.2a.75.75,0,1,1,0-1.5h1.39a.75.75,0,0,1,0,1.5Z"/><path class="d" d="M83.2,74.25H81.82a.75.75,0,0,1,0-1.5H83.2a.75.75,0,0,1,0,1.5Z"/><path class="d" d="M80.2,77.25a.75.75,0,0,1-.75-.75V75.12a.75.75,0,0,1,1.5,0V76.5A.74.74,0,0,1,80.2,77.25Z"/><path class="d" d="M80.2,72.64a.76.76,0,0,1-.75-.75V70.5a.75.75,0,0,1,1.5,0v1.39A.75.75,0,0,1,80.2,72.64Z"/><path class="d" d="M43.58,79.25H42.2a.75.75,0,0,1,0-1.5h1.38a.75.75,0,0,1,0,1.5Z"/><path class="d" d="M48.2,79.25H46.82a.75.75,0,1,1,0-1.5H48.2a.75.75,0,0,1,0,1.5Z"/><path class="d" d="M45.2,82.25a.75.75,0,0,1-.75-.75V80.12a.75.75,0,0,1,1.5,0V81.5A.75.75,0,0,1,45.2,82.25Z"/><path class="d" d="M45.2,77.64a.76.76,0,0,1-.75-.75V75.5a.75.75,0,0,1,1.5,0v1.39A.76.76,0,0,1,45.2,77.64Z"/><path class="d" d="M25.58,73.25H24.2a.75.75,0,0,1,0-1.5h1.38a.75.75,0,0,1,0,1.5Z"/><path class="d" d="M30.2,73.25H28.81a.75.75,0,0,1,0-1.5H30.2a.75.75,0,1,1,0,1.5Z"/><path class="d" d="M27.2,76.25a.74.74,0,0,1-.75-.75V74.12a.75.75,0,0,1,1.5,0V75.5A.75.75,0,0,1,27.2,76.25Z"/><path class="d" d="M27.2,71.64a.75.75,0,0,1-.75-.75V69.5a.75.75,0,0,1,1.5,0v1.39A.76.76,0,0,1,27.2,71.64Z"/><path class="d" d="M46.9,22.25H34.2a.75.75,0,0,1,0-1.5H46.9a.75.75,0,1,1,0,1.5Z"/><path class="d" d="M53.2,22.25H50.9a.75.75,0,0,1,0-1.5h2.3a.75.75,0,0,1,0,1.5Z"/><path class="c" d="M89.38,33.34h-9l-7,6-7-6h-9a2,2,0,0,1-2-2v-19a2,2,0,0,1,2-2h32a2,2,0,0,1,2,2v19A2,2,0,0,1,89.38,33.34Z"/><path class="b" d="M89.38,33.34h-9l-7,6-7-6h-6a12,12,0,0,1,12-12h19v10A2,2,0,0,1,89.38,33.34Z"/><path class="d" d="M73.39,40.09a.74.74,0,0,1-.49-.18l-6.79-5.82H57.38a2.76,2.76,0,0,1-2.75-2.75v-19a2.75,2.75,0,0,1,2.75-2.75h32a2.75,2.75,0,0,1,2.75,2.75v19a2.75,2.75,0,0,1-2.75,2.75H80.66l-6.79,5.82A.74.74,0,0,1,73.39,40.09Zm-16-29a1.26,1.26,0,0,0-1.25,1.25v19a1.26,1.26,0,0,0,1.25,1.25h9a.72.72,0,0,1,.49.18l6.52,5.58,6.51-5.58a.72.72,0,0,1,.49-.18h9a1.25,1.25,0,0,0,1.25-1.25v-19a1.25,1.25,0,0,0-1.25-1.25Z"/><path class="c" d="M69.38,17.07a4.57,4.57,0,0,1,1-1.13,4.43,4.43,0,0,0-.9-.1,4.23,4.23,0,0,0-1,.12A4.54,4.54,0,0,1,69.38,17.07Z"/><path class="c" d="M81.88,20.36a4.57,4.57,0,0,0-8.5-2.29,4.57,4.57,0,0,0-8.5,2.29c0,5.33,8.5,10.48,8.5,10.48S81.88,25.69,81.88,20.36Z"/><path class="b" d="M77.32,15.84a4.31,4.31,0,0,0-1,.12,4.49,4.49,0,0,1,1.58,3.4c0,4-4.77,7.89-7.16,9.59a29.9,29.9,0,0,0,2.66,1.89s8.5-5.15,8.5-10.48A4.54,4.54,0,0,0,77.32,15.84Z"/><path class="c" d="M73.38,18.07A4.56,4.56,0,0,1,76.3,16a4.54,4.54,0,0,0-6,0A4.51,4.51,0,0,1,73.38,18.07Z"/><path class="d" d="M73.38,31.59a.76.76,0,0,1-.38-.11c-.37-.22-8.87-5.43-8.87-11.12a5.32,5.32,0,0,1,9.25-3.54,5.36,5.36,0,0,1,3.94-1.73,5.29,5.29,0,0,1,5.31,5.27c0,5.69-8.5,10.9-8.86,11.12A.77.77,0,0,1,73.38,31.59Zm-3.93-15a3.8,3.8,0,0,0-3.82,3.77c0,4.23,6.13,8.53,7.75,9.59,1.63-1.06,7.75-5.36,7.75-9.59a3.79,3.79,0,0,0-3.81-3.77A3.84,3.84,0,0,0,74,18.45a.78.78,0,0,1-1.29,0A3.84,3.84,0,0,0,69.45,16.59Z"/></svg>