<svg xmlns="http://www.w3.org/2000/svg" viewBox="0 0 100 100"><defs><style>.a{fill:#e7e9f1;}.b{fill:#bdc3d8;}.c{fill:#fff;}.d{fill:#21365f;}</style></defs><circle class="a" cx="21.38" cy="54.75" r="14"/><circle class="a" cx="59.82" cy="21.5" r="12"/><circle class="a" cx="72.62" cy="70.5" r="20"/><path class="b" d="M42.63,27.5h42a0,0,0,0,1,0,0v52a2,2,0,0,1-2,2h-40a0,0,0,0,1,0,0v-54A0,0,0,0,1,42.63,27.5Z"/><path class="c" d="M42.63,27.5h36a0,0,0,0,1,0,0v43a7,7,0,0,1-7,7h-29a0,0,0,0,1,0,0v-50A0,0,0,0,1,42.63,27.5Z"/><path class="d" d="M82.63,82.25h-40a.75.75,0,0,1-.75-.75v-54a.74.74,0,0,1,.75-.75h42a.75.75,0,0,1,.75.75v52A2.76,2.76,0,0,1,82.63,82.25Zm-39.25-1.5H82.63a1.25,1.25,0,0,0,1.25-1.25V28.25H43.38Z"/><path class="b" d="M22.63,17.5h60a2,2,0,0,1,2,2v8a0,0,0,0,1,0,0h-64a0,0,0,0,1,0,0v-8A2,2,0,0,1,22.63,17.5Z"/><path class="b" d="M20.63,27.5h22a0,0,0,0,1,0,0v54a0,0,0,0,1,0,0h-20a2,2,0,0,1-2-2v-52A0,0,0,0,1,20.63,27.5Z"/><path class="c" d="M71.63,24.5h-51v-5a2,2,0,0,1,2-2h56A7,7,0,0,1,71.63,24.5Z"/><path class="c" d="M20.63,27.5h17a0,0,0,0,1,0,0v43a7,7,0,0,1-7,7h-10a0,0,0,0,1,0,0v-50A0,0,0,0,1,20.63,27.5Z"/><path class="d" d="M78.62,23.5a1,1,0,0,1-1-1,1,1,0,0,1,.3-.71,1,1,0,0,1,1.41,0,1,1,0,0,1,.29.71,1,1,0,0,1-.29.7A1,1,0,0,1,78.62,23.5Z"/><path class="d" d="M71.62,22.5a1,1,0,0,1,1-1h0a1,1,0,0,1,1,1h0a1,1,0,0,1-1,1h0A1,1,0,0,1,71.62,22.5Z"/><path class="d" d="M66.63,23.5a1,1,0,0,1-1-1,1,1,0,0,1,.3-.71,1,1,0,0,1,1.41,0,1,1,0,0,1,.3.71,1,1,0,0,1-.3.7A1,1,0,0,1,66.63,23.5Z"/><path class="d" d="M84.63,28.25h-64a.75.75,0,0,1-.75-.75v-8a2.75,2.75,0,0,1,2.75-2.75h60a2.75,2.75,0,0,1,2.75,2.75v8A.76.76,0,0,1,84.63,28.25Zm-63.25-1.5h62.5V19.5a1.25,1.25,0,0,0-1.25-1.25h-60a1.25,1.25,0,0,0-1.25,1.25Z"/><rect class="b" x="48.63" y="33.5" width="30" height="12" rx="1"/><rect class="b" x="48.63" y="51.5" width="12" height="12" rx="1"/><rect class="b" x="66.63" y="51.5" width="12" height="12" rx="1"/><path class="c" d="M49.63,33.5h27a0,0,0,0,1,0,0v8a2,2,0,0,1-2,2h-26a0,0,0,0,1,0,0v-9A1,1,0,0,1,49.63,33.5Z"/><path class="c" d="M49.63,51.5h9a0,0,0,0,1,0,0v8a2,2,0,0,1-2,2h-8a0,0,0,0,1,0,0v-9A1,1,0,0,1,49.63,51.5Z"/><path class="c" d="M67.63,51.5h9a0,0,0,0,1,0,0v8a2,2,0,0,1-2,2h-8a0,0,0,0,1,0,0v-9A1,1,0,0,1,67.63,51.5Z"/><path class="d" d="M77.63,46.25h-28a1.75,1.75,0,0,1-1.75-1.75v-10a1.75,1.75,0,0,1,1.75-1.75h28a1.75,1.75,0,0,1,1.75,1.75v10A1.76,1.76,0,0,1,77.63,46.25Zm-28-12a.25.25,0,0,0-.25.25v10a.25.25,0,0,0,.25.25h28a.25.25,0,0,0,.25-.25v-10a.25.25,0,0,0-.25-.25Z"/><path class="d" d="M59.63,64.25h-10a1.75,1.75,0,0,1-1.75-1.75v-10a1.75,1.75,0,0,1,1.75-1.75h10a1.75,1.75,0,0,1,1.75,1.75v10A1.76,1.76,0,0,1,59.63,64.25Zm-10-12a.25.25,0,0,0-.25.25v10a.25.25,0,0,0,.25.25h10a.25.25,0,0,0,.25-.25v-10a.25.25,0,0,0-.25-.25Z"/><path class="d" d="M77.63,64.25h-10a1.75,1.75,0,0,1-1.75-1.75v-10a1.75,1.75,0,0,1,1.75-1.75h10a1.75,1.75,0,0,1,1.75,1.75v10A1.76,1.76,0,0,1,77.63,64.25Zm-10-12a.25.25,0,0,0-.25.25v10a.25.25,0,0,0,.25.25h10a.25.25,0,0,0,.25-.25v-10a.25.25,0,0,0-.25-.25Z"/><path class="d" d="M42.63,82.25h-20a2.75,2.75,0,0,1-2.75-2.75v-52a.74.74,0,0,1,.75-.75h22a.75.75,0,0,1,.75.75v54A.76.76,0,0,1,42.63,82.25Zm-21.25-54V79.5a1.25,1.25,0,0,0,1.25,1.25H41.88V28.25Z"/><rect class="b" x="25.62" y="32.5" width="8" height="8" rx="3"/><path class="c" d="M28.62,32.5h3a0,0,0,0,1,0,0v4a2,2,0,0,1-2,2h-4a0,0,0,0,1,0,0v-3A3,3,0,0,1,28.62,32.5Z"/><path class="d" d="M30.63,41.25h-2a3.76,3.76,0,0,1-3.75-3.75v-2a3.75,3.75,0,0,1,3.75-3.75h2a3.76,3.76,0,0,1,3.75,3.75v2A3.76,3.76,0,0,1,30.63,41.25Zm-2-8a2.25,2.25,0,0,0-2.25,2.25v2a2.25,2.25,0,0,0,2.25,2.25h2a2.25,2.25,0,0,0,2.25-2.25v-2a2.25,2.25,0,0,0-2.25-2.25Z"/><path class="d" d="M37.63,46.25h-12a.75.75,0,1,1,0-1.5h12a.75.75,0,0,1,0,1.5Z"/><path class="d" d="M42.63,52.25h-17a.75.75,0,1,1,0-1.5h17a.75.75,0,0,1,0,1.5Z"/><path class="d" d="M37.63,58.25h-12a.75.75,0,1,1,0-1.5h12a.75.75,0,0,1,0,1.5Z"/><path class="d" d="M37.63,64.25h-12a.75.75,0,1,1,0-1.5h12a.75.75,0,0,1,0,1.5Z"/><path class="d" d="M37.63,70.25h-12a.75.75,0,1,1,0-1.5h12a.75.75,0,0,1,0,1.5Z"/><path class="d" d="M60.63,70.25h-12a.75.75,0,1,1,0-1.5h12a.75.75,0,0,1,0,1.5Z"/><path class="d" d="M56.63,75.25h-8a.75.75,0,1,1,0-1.5h8a.75.75,0,0,1,0,1.5Z"/><path class="d" d="M78.63,70.25h-12a.75.75,0,0,1,0-1.5h12a.75.75,0,0,1,0,1.5Z"/><path class="d" d="M74.63,75.25h-8a.75.75,0,0,1,0-1.5h8a.75.75,0,0,1,0,1.5Z"/><path class="d" d="M67.13,63.75a.73.73,0,0,1-.53-.22.74.74,0,0,1,0-1.06l11-11a.75.75,0,0,1,1.06,1.06l-11,11A.74.74,0,0,1,67.13,63.75Z"/><path class="d" d="M78.13,63.75a.73.73,0,0,1-.53-.22l-11-11a.74.74,0,0,1,0-1.06.75.75,0,0,1,1.06,0l11,11a.75.75,0,0,1,0,1.06A.74.74,0,0,1,78.13,63.75Z"/><path class="d" d="M49.13,63.75a.71.71,0,0,1-.53-.22.74.74,0,0,1,0-1.06l11-11a.75.75,0,0,1,1.06,1.06l-11,11A.74.74,0,0,1,49.13,63.75Z"/><path class="d" d="M60.13,63.75a.71.71,0,0,1-.53-.22l-11-11a.74.74,0,0,1,0-1.06.75.75,0,0,1,1.06,0l11,11a.75.75,0,0,1,0,1.06A.74.74,0,0,1,60.13,63.75Z"/><path class="d" d="M49.13,45.75a.74.74,0,0,1-.7-.49.73.73,0,0,1,.43-1l29-11a.75.75,0,0,1,1,.43.76.76,0,0,1-.44,1l-29,11A.85.85,0,0,1,49.13,45.75Z"/><path class="d" d="M78.13,45.75a.86.86,0,0,1-.27,0l-29-11a.75.75,0,0,1-.43-1,.73.73,0,0,1,1-.43l29,11a.75.75,0,0,1,.44,1A.76.76,0,0,1,78.13,45.75Z"/><path class="d" d="M91.63,34.87h-4a.75.75,0,0,1,0-1.5h4a.75.75,0,0,1,0,1.5Z"/><path class="d" d="M89.63,36.87a.74.74,0,0,1-.75-.75v-4a.75.75,0,0,1,1.5,0v4A.75.75,0,0,1,89.63,36.87Z"/><circle class="d" cx="89.63" cy="40.12" r="0.75"/><circle class="d" cx="89.63" cy="43.12" r="0.75"/><circle class="d" cx="89.63" cy="47.12" r="0.75"/><circle class="d" cx="89.63" cy="53.12" r="0.75"/><path class="d" d="M17.63,71.63h-4a.75.75,0,1,1,0-1.5h4a.75.75,0,0,1,0,1.5Z"/><path class="d" d="M15.63,73.63a.75.75,0,0,1-.75-.75v-4a.75.75,0,1,1,1.5,0v4A.76.76,0,0,1,15.63,73.63Z"/><circle class="d" cx="15.63" cy="64.88" r="0.75"/><circle class="d" cx="15.63" cy="60.88" r="0.75"/><circle class="d" cx="15.63" cy="55.87" r="0.75"/><circle class="d" cx="15.63" cy="48.87" r="0.75"/></svg>