<svg xmlns="http://www.w3.org/2000/svg" viewBox="0 0 100 100"><defs><style>.a{fill:#e7e9f1;}.b{fill:#bdc3d8;}.c{fill:#fff;}.d{fill:#21365f;}</style></defs><circle class="a" cx="23.63" cy="37.15" r="14"/><circle class="a" cx="78.37" cy="32.55" r="12"/><circle class="a" cx="56.37" cy="65.75" r="20"/><rect class="b" x="49.45" y="65.16" width="18.38" height="7.15"/><path class="c" d="M49.49,65.16h14.3a0,0,0,0,1,0,0v1.08a3,3,0,0,1-3,3H49.49a0,0,0,0,1,0,0V65.16A0,0,0,0,1,49.49,65.16Z"/><path class="d" d="M67.83,73.08H49.45a.77.77,0,0,1-.76-.77V65.16a.76.76,0,0,1,.76-.76H67.83a.77.77,0,0,1,.77.76v7.15A.78.78,0,0,1,67.83,73.08ZM50.22,71.54H67.07V65.93H50.22Z"/><path class="d" d="M75,73.08H42.3a.77.77,0,0,1,0-1.54H75a.77.77,0,1,1,0,1.54Z"/><path class="d" d="M93.7,35H90.11a.67.67,0,0,1-.67-.67.68.68,0,0,1,.67-.68H93.7a.68.68,0,0,1,.68.68A.67.67,0,0,1,93.7,35Z"/><path class="d" d="M91.91,36.82a.68.68,0,0,1-.68-.68V32.55a.68.68,0,0,1,.68-.67.67.67,0,0,1,.67.67v3.59A.67.67,0,0,1,91.91,36.82Z"/><circle class="d" cx="91.91" cy="39.73" r="0.67"/><circle class="d" cx="91.91" cy="42.43" r="0.67"/><circle class="d" cx="91.91" cy="46.02" r="0.67"/><circle class="d" cx="91.91" cy="51.41" r="0.67"/><path class="b" d="M48.66,28.4H86.37a0,0,0,0,1,0,0V57.88a2,2,0,0,1-2,2H48.66a0,0,0,0,1,0,0V28.4A0,0,0,0,1,48.66,28.4Z"/><path class="b" d="M30.91,19.42H84.37a2,2,0,0,1,2,2v7a0,0,0,0,1,0,0H28.91a0,0,0,0,1,0,0v-7A2,2,0,0,1,30.91,19.42Z"/><path class="b" d="M28.91,28.4H48.66a0,0,0,0,1,0,0V59.88a0,0,0,0,1,0,0H30.91a2,2,0,0,1-2-2V28.4A0,0,0,0,1,28.91,28.4Z"/><path class="c" d="M74.7,25.71H28.91V21.22a1.81,1.81,0,0,1,1.8-1.8H81A6.29,6.29,0,0,1,74.7,25.71Z"/><path class="d" d="M81,24.81a.9.9,0,0,1-.63-.27.87.87,0,0,1-.27-.63.89.89,0,0,1,.27-.63.92.92,0,0,1,1.27,0,.88.88,0,0,1,.26.63.86.86,0,0,1-.26.63A.89.89,0,0,1,81,24.81Z"/><path class="d" d="M74.7,23.91a.89.89,0,0,1,.9-.89h0a.88.88,0,0,1,.89.89h0a.89.89,0,0,1-.89.9h0A.9.9,0,0,1,74.7,23.91Z"/><path class="d" d="M70.22,24.81a.93.93,0,0,1-.64-.26.91.91,0,0,1-.27-.64.89.89,0,0,1,.27-.63.92.92,0,0,1,1.27,0,.89.89,0,0,1,.27.63.87.87,0,0,1-.27.63A.9.9,0,0,1,70.22,24.81Z"/><path class="d" d="M86.37,29.07H28.91a.67.67,0,0,1-.67-.67V21.22a2.48,2.48,0,0,1,2.47-2.47H84.58a2.48,2.48,0,0,1,2.47,2.47V28.4A.67.67,0,0,1,86.37,29.07ZM29.59,27.73H85.7V21.22a1.12,1.12,0,0,0-1.12-1.12H30.71a1.12,1.12,0,0,0-1.12,1.12Z"/><rect class="c" x="28.96" y="28" width="15" height="31"/><path class="d" d="M48.66,60.56H30.71a2.48,2.48,0,0,1-2.47-2.47V28.4a.67.67,0,0,1,.67-.67H48.66a.67.67,0,0,1,.68.67V59.88A.68.68,0,0,1,48.66,60.56ZM29.58,29.07v29a1.13,1.13,0,0,0,1.13,1.12H48V29.07Z"/><rect class="b" x="33.4" y="32.89" width="7.18" height="7.18" rx="3"/><path class="c" d="M36.4,32.89h2.39a0,0,0,0,1,0,0v3.39a2,2,0,0,1-2,2H33.4a0,0,0,0,1,0,0V35.89A3,3,0,0,1,36.4,32.89Z"/><path class="d" d="M37.89,40.74h-1.8a3.37,3.37,0,0,1-3.36-3.36v-1.8a3.37,3.37,0,0,1,3.36-3.37h1.8a3.37,3.37,0,0,1,3.37,3.37v1.8A3.37,3.37,0,0,1,37.89,40.74Zm-1.8-7.18a2,2,0,0,0-2,2v1.8a2,2,0,0,0,2,2h1.8a2,2,0,0,0,2-2v-1.8a2,2,0,0,0-2-2Z"/><path class="d" d="M44.17,45.23H33.4a.67.67,0,1,1,0-1.34H44.17a.67.67,0,1,1,0,1.34Z"/><path class="d" d="M48.66,49.62H33.4a.67.67,0,0,1-.67-.67.68.68,0,0,1,.67-.68H48.66a.68.68,0,0,1,.68.68A.67.67,0,0,1,48.66,49.62Z"/><path class="d" d="M44.17,54H33.4a.68.68,0,0,1,0-1.35H44.17a.68.68,0,1,1,0,1.35Z"/><rect class="c" x="48.96" y="28" width="32" height="31"/><path class="d" d="M84.58,60.56H48.66a.68.68,0,0,1-.67-.68V28.4a.67.67,0,0,1,.67-.67H86.37a.67.67,0,0,1,.68.67V58.09A2.48,2.48,0,0,1,84.58,60.56ZM49.34,59.21H84.58a1.12,1.12,0,0,0,1.12-1.12v-29H49.34Z"/><rect class="b" x="54.05" y="33.79" width="26.93" height="10.77" rx="1"/><path class="c" d="M55.05,33.79H79.19a0,0,0,0,1,0,0v7a2,2,0,0,1-2,2H54.05a0,0,0,0,1,0,0v-8A1,1,0,0,1,55.05,33.79Z"/><path class="d" d="M80.09,45.23H55a1.57,1.57,0,0,1-1.57-1.57v-9A1.57,1.57,0,0,1,55,33.11H80.09a1.58,1.58,0,0,1,1.57,1.57v9A1.57,1.57,0,0,1,80.09,45.23ZM55,34.46a.23.23,0,0,0-.23.22v9a.23.23,0,0,0,.23.23H80.09a.22.22,0,0,0,.22-.23v-9a.22.22,0,0,0-.22-.22Z"/><path class="d" d="M64.82,49.78H54.05a.67.67,0,0,1,0-1.34H64.82a.67.67,0,1,1,0,1.34Z"/><path class="d" d="M61.23,54.27H54.05a.67.67,0,0,1,0-1.34h7.18a.67.67,0,1,1,0,1.34Z"/><path class="d" d="M81,49.78H70.21a.67.67,0,1,1,0-1.34H81a.67.67,0,0,1,0,1.34Z"/><path class="d" d="M77.4,54.27H70.21a.67.67,0,1,1,0-1.34H77.4a.67.67,0,1,1,0,1.34Z"/><path class="d" d="M54.5,44.79a.68.68,0,0,1-.24-1.31l26-9.87a.67.67,0,0,1,.87.39.69.69,0,0,1-.39.87l-26,9.87A.69.69,0,0,1,54.5,44.79Z"/><path class="d" d="M80.54,44.79a.69.69,0,0,1-.24,0l-26-9.87a.68.68,0,0,1-.39-.87.66.66,0,0,1,.87-.39l26,9.87a.68.68,0,0,1-.24,1.31Z"/><path class="b" d="M30.92,58.42H84.38a2,2,0,0,1,2,2v5a0,0,0,0,1,0,0H28.92a0,0,0,0,1,0,0v-5a2,2,0,0,1,2-2Z"/><path class="c" d="M74.71,62.71H28.91V60.22a1.81,1.81,0,0,1,1.8-1.8H81C81,61.89,78.18,62.71,74.71,62.71Z"/><path class="d" d="M28.91,57.75H86.37a.67.67,0,0,1,.68.67v5.19a2.47,2.47,0,0,1-2.47,2.46H30.71a2.47,2.47,0,0,1-2.47-2.46V58.42A.67.67,0,0,1,28.91,57.75ZM85.7,59.1H29.59v4.51a1.12,1.12,0,0,0,1.12,1.12H84.58a1.12,1.12,0,0,0,1.12-1.12Z"/><rect class="b" x="9.37" y="42" width="34" height="44" rx="3"/><path class="c" d="M12.37,42h24a0,0,0,0,1,0,0V79.5a3,3,0,0,1-3,3h-24a0,0,0,0,1,0,0V45A3,3,0,0,1,12.37,42Z"/><path class="d" d="M40.37,86.75h-28A3.75,3.75,0,0,1,8.62,83V45a3.75,3.75,0,0,1,3.75-3.75h28A3.75,3.75,0,0,1,44.12,45V83A3.75,3.75,0,0,1,40.37,86.75Zm-28-44A2.25,2.25,0,0,0,10.12,45V83a2.25,2.25,0,0,0,2.25,2.25h28A2.25,2.25,0,0,0,42.62,83V45a2.25,2.25,0,0,0-2.25-2.25Z"/><rect class="b" x="13.37" y="49" width="26" height="30" rx="1"/><path class="c" d="M14.37,49h20a0,0,0,0,1,0,0V72a3,3,0,0,1-3,3h-18a0,0,0,0,1,0,0V50A1,1,0,0,1,14.37,49Z"/><path class="d" d="M38.37,79.75h-24A1.76,1.76,0,0,1,12.62,78V50a1.75,1.75,0,0,1,1.75-1.75h24A1.75,1.75,0,0,1,40.12,50V78A1.75,1.75,0,0,1,38.37,79.75Zm-24-30a.25.25,0,0,0-.25.25V78a.25.25,0,0,0,.25.25h24a.25.25,0,0,0,.25-.25V50a.25.25,0,0,0-.25-.25Z"/><path class="d" d="M29.87,46.25h-7a.75.75,0,0,1,0-1.5h7a.75.75,0,1,1,0,1.5Z"/><path class="d" d="M29.87,83.25h-7a.75.75,0,0,1,0-1.5h7a.75.75,0,1,1,0,1.5Z"/><path class="d" d="M30.75,69.75H29.37a.75.75,0,0,1,0-1.5h1.38a.75.75,0,0,1,0,1.5Z"/><path class="d" d="M35.37,69.75H34a.75.75,0,1,1,0-1.5h1.39a.75.75,0,1,1,0,1.5Z"/><path class="d" d="M32.37,72.75a.75.75,0,0,1-.75-.75V70.62a.75.75,0,1,1,1.5,0V72A.75.75,0,0,1,32.37,72.75Z"/><path class="d" d="M32.37,68.14a.76.76,0,0,1-.75-.75V66a.75.75,0,1,1,1.5,0v1.39A.76.76,0,0,1,32.37,68.14Z"/><path class="d" d="M23.75,56.75H22.37a.75.75,0,0,1,0-1.5h1.38a.75.75,0,0,1,0,1.5Z"/><path class="d" d="M28.37,56.75H27a.75.75,0,0,1,0-1.5h1.39a.75.75,0,1,1,0,1.5Z"/><path class="d" d="M25.37,59.75a.74.74,0,0,1-.75-.75V57.62a.75.75,0,0,1,1.5,0V59A.75.75,0,0,1,25.37,59.75Z"/><path class="d" d="M25.37,55.14a.75.75,0,0,1-.75-.75V53a.75.75,0,0,1,1.5,0v1.39A.76.76,0,0,1,25.37,55.14Z"/><path class="d" d="M17.37,76.14a.76.76,0,0,1-.75-.75v-7.7a.75.75,0,0,1,1.5,0v7.7A.75.75,0,0,1,17.37,76.14Z"/><path class="d" d="M17.37,64.44a.76.76,0,0,1-.75-.75v-2.3a.75.75,0,0,1,1.5,0v2.3A.75.75,0,0,1,17.37,64.44Z"/></svg>