<svg xmlns="http://www.w3.org/2000/svg" viewBox="0 0 100 100"><defs><style>.a{fill:#e7e9f1;}.b{fill:#bdc3d8;}.c{fill:#fff;}.d{fill:#21365f;}</style></defs><circle class="a" cx="23.63" cy="37.15" r="14"/><circle class="a" cx="78.37" cy="32.55" r="12"/><circle class="a" cx="56.37" cy="65.75" r="20"/><rect class="b" x="48.28" y="66.21" width="19.93" height="7.75"/><path class="c" d="M48.32,66.21H63.83a0,0,0,0,1,0,0v1.43a3,3,0,0,1-3,3H48.32a0,0,0,0,1,0,0V66.21A0,0,0,0,1,48.32,66.21Z"/><path class="d" d="M68.21,74.79H48.28a.83.83,0,0,1-.83-.83V66.21a.83.83,0,0,1,.83-.83H68.21a.83.83,0,0,1,.83.83V74A.83.83,0,0,1,68.21,74.79Zm-19.1-1.66H67.38V67H49.11Z"/><path class="d" d="M76,74.79H40.53a.83.83,0,1,1,0-1.66H76a.83.83,0,0,1,0,1.66Z"/><path class="d" d="M96.27,33.52h-3.9a.73.73,0,0,1,0-1.46h3.9a.73.73,0,1,1,0,1.46Z"/><path class="d" d="M94.32,35.47a.73.73,0,0,1-.73-.73V30.85a.73.73,0,0,1,1.46,0v3.89A.73.73,0,0,1,94.32,35.47Z"/><circle class="d" cx="94.32" cy="38.64" r="0.73"/><circle class="d" cx="94.32" cy="41.56" r="0.73"/><circle class="d" cx="94.32" cy="45.45" r="0.73"/><circle class="d" cx="94.32" cy="51.29" r="0.73"/><path class="b" d="M47.42,26.34h40.9a0,0,0,0,1,0,0V58.49a2,2,0,0,1-2,2H47.42a0,0,0,0,1,0,0V26.34A0,0,0,0,1,47.42,26.34Z"/><path class="b" d="M28,16.61H86.32a2,2,0,0,1,2,2v7.74a0,0,0,0,1,0,0H26a0,0,0,0,1,0,0V18.61A2,2,0,0,1,28,16.61Z"/><path class="b" d="M26,26.34H47.42a0,0,0,0,1,0,0V60.49a0,0,0,0,1,0,0H28a2,2,0,0,1-2-2V26.34A0,0,0,0,1,26,26.34Z"/><path class="c" d="M75.66,23.42H26V18.55A1.94,1.94,0,0,1,28,16.61H82.48A6.81,6.81,0,0,1,75.66,23.42Z"/><path class="d" d="M82.47,22.45a1,1,0,0,1-1-1,1,1,0,0,1,.29-.69,1,1,0,0,1,1.38,0,1,1,0,0,1,.28.69,1,1,0,0,1-.28.68A1,1,0,0,1,82.47,22.45Z"/><path class="d" d="M75.66,21.48a1,1,0,0,1,1-1h0a1,1,0,0,1,1,1h0a1,1,0,0,1-1,1h0A1,1,0,0,1,75.66,21.48Z"/><path class="d" d="M70.8,22.45a1,1,0,0,1-.69-.28,1,1,0,0,1-.29-.69.93.93,0,0,1,.29-.69,1,1,0,0,1,1.37,0,.93.93,0,0,1,.29.69.94.94,0,0,1-.29.68A1,1,0,0,1,70.8,22.45Z"/><path class="d" d="M88.32,27.07H26a.73.73,0,0,1-.74-.73V18.55A2.68,2.68,0,0,1,28,15.88H86.37a2.68,2.68,0,0,1,2.68,2.67v7.79A.73.73,0,0,1,88.32,27.07ZM26.74,25.61H87.59V18.55a1.21,1.21,0,0,0-1.22-1.21H28a1.21,1.21,0,0,0-1.21,1.21Z"/><rect class="c" x="26.05" y="25.91" width="16.27" height="33.62"/><path class="d" d="M47.42,61.22H28a2.69,2.69,0,0,1-2.68-2.68V26.34a.73.73,0,0,1,.73-.73H47.42a.73.73,0,0,1,.73.73V60.49A.73.73,0,0,1,47.42,61.22ZM26.73,27.07V58.54A1.22,1.22,0,0,0,28,59.76H46.69V27.07Z"/><rect class="b" x="30.87" y="31.21" width="7.79" height="7.79" rx="3"/><path class="c" d="M33.87,31.21h2.84a0,0,0,0,1,0,0v3.84a2,2,0,0,1-2,2H30.87a0,0,0,0,1,0,0V34.21A3,3,0,0,1,33.87,31.21Z"/><path class="d" d="M35.74,39.73h-2a3.66,3.66,0,0,1-3.65-3.65V34.13a3.66,3.66,0,0,1,3.65-3.65h2a3.66,3.66,0,0,1,3.65,3.65v1.95A3.66,3.66,0,0,1,35.74,39.73Zm-2-7.79a2.19,2.19,0,0,0-2.19,2.19v1.95a2.19,2.19,0,0,0,2.19,2.19h2a2.19,2.19,0,0,0,2.19-2.19V34.13a2.19,2.19,0,0,0-2.19-2.19Z"/><path class="d" d="M42.56,44.6H30.87a.73.73,0,1,1,0-1.46H42.56a.73.73,0,0,1,0,1.46Z"/><path class="d" d="M47.42,49.36H30.87a.73.73,0,0,1,0-1.46H47.42a.73.73,0,1,1,0,1.46Z"/><path class="d" d="M42.56,54.11H30.87a.73.73,0,0,1,0-1.46H42.56a.73.73,0,1,1,0,1.46Z"/><rect class="c" x="47.74" y="25.91" width="34.7" height="33.62"/><path class="d" d="M86.37,61.22H47.42a.73.73,0,0,1-.73-.73V26.34a.73.73,0,0,1,.73-.73h40.9a.73.73,0,0,1,.73.73v32.2A2.69,2.69,0,0,1,86.37,61.22ZM48.16,59.76H86.37a1.22,1.22,0,0,0,1.22-1.22V27.07H48.16Z"/><rect class="b" x="53.27" y="32.18" width="29.21" height="11.68" rx="1"/><path class="c" d="M54.27,32.18H80.53a0,0,0,0,1,0,0v7.74a2,2,0,0,1-2,2H53.27a0,0,0,0,1,0,0V33.18A1,1,0,0,1,54.27,32.18Z"/><path class="d" d="M81.5,44.6H54.24a1.71,1.71,0,0,1-1.7-1.71V33.16a1.71,1.71,0,0,1,1.7-1.71H81.5a1.72,1.72,0,0,1,1.71,1.71v9.73A1.72,1.72,0,0,1,81.5,44.6ZM54.24,32.91a.25.25,0,0,0-.24.25v9.73a.25.25,0,0,0,.24.25H81.5a.25.25,0,0,0,.25-.25V33.16a.25.25,0,0,0-.25-.25Z"/><path class="d" d="M65,49.53H53.27a.73.73,0,1,1,0-1.46H65a.73.73,0,0,1,0,1.46Z"/><path class="d" d="M61.06,54.4H53.27a.73.73,0,1,1,0-1.46h7.79a.73.73,0,1,1,0,1.46Z"/><path class="d" d="M82.48,49.53H70.79a.73.73,0,1,1,0-1.46H82.48a.73.73,0,0,1,0,1.46Z"/><path class="d" d="M78.58,54.4H70.79a.73.73,0,1,1,0-1.46h7.79a.73.73,0,0,1,0,1.46Z"/><path class="d" d="M53.75,44.11a.73.73,0,0,1-.26-1.41L81.73,32a.72.72,0,0,1,.94.42.72.72,0,0,1-.42.94L54,44.06A.58.58,0,0,1,53.75,44.11Z"/><path class="d" d="M82,44.11a.63.63,0,0,1-.26,0L53.49,33.35A.73.73,0,1,1,54,32L82.25,42.7A.73.73,0,0,1,82,44.11Z"/><path class="b" d="M28,58.9H86.32a2,2,0,0,1,2,2v5.57a0,0,0,0,1,0,0H26a0,0,0,0,1,0,0V60.9a2,2,0,0,1,2-2Z"/><path class="c" d="M75.67,63.55H26v-2.7a1.94,1.94,0,0,1,1.94-2H82.48C82.48,62.67,79.43,63.55,75.67,63.55Z"/><path class="d" d="M26,58.17H88.32a.73.73,0,0,1,.73.73v5.62a2.68,2.68,0,0,1-2.68,2.68H28a2.69,2.69,0,0,1-2.68-2.68V58.9A.74.74,0,0,1,26,58.17Zm61.58,1.46H26.74v4.89A1.22,1.22,0,0,0,28,65.74H86.37a1.22,1.22,0,0,0,1.22-1.22Z"/><rect class="b" x="5.81" y="41.09" width="36.87" height="47.72" rx="3"/><path class="c" d="M8.81,41.09H35.09a0,0,0,0,1,0,0V82a3,3,0,0,1-3,3H5.81a0,0,0,0,1,0,0V44.09A3,3,0,0,1,8.81,41.09Z"/><path class="d" d="M39.43,89.62H9.07A4.07,4.07,0,0,1,5,85.56V44.34a4.07,4.07,0,0,1,4.07-4.06H39.43a4.07,4.07,0,0,1,4.07,4.06V85.56A4.07,4.07,0,0,1,39.43,89.62ZM9.07,41.9a2.44,2.44,0,0,0-2.44,2.44V85.56A2.44,2.44,0,0,0,9.07,88H39.43a2.44,2.44,0,0,0,2.44-2.44V44.34a2.44,2.44,0,0,0-2.44-2.44Z"/><rect class="b" x="10.15" y="48.68" width="28.2" height="32.54" rx="1"/><path class="c" d="M11.15,48.68H32.92a0,0,0,0,1,0,0v25.2a3,3,0,0,1-3,3H10.15a0,0,0,0,1,0,0V49.68A1,1,0,0,1,11.15,48.68Z"/><path class="d" d="M37.26,82h-26a1.9,1.9,0,0,1-1.89-1.9V49.77a1.9,1.9,0,0,1,1.89-1.9h26a1.9,1.9,0,0,1,1.9,1.9V80.13A1.9,1.9,0,0,1,37.26,82Zm-26-32.53a.28.28,0,0,0-.27.27V80.13a.28.28,0,0,0,.27.27h26a.27.27,0,0,0,.27-.27V49.77a.27.27,0,0,0-.27-.27Z"/><path class="d" d="M28,45.7H20.45a.81.81,0,0,1-.81-.81.82.82,0,0,1,.81-.82H28a.82.82,0,0,1,.82.82A.82.82,0,0,1,28,45.7Z"/><path class="d" d="M28,85.83H20.45a.82.82,0,0,1-.81-.82.81.81,0,0,1,.81-.81H28a.82.82,0,0,1,.82.81A.82.82,0,0,1,28,85.83Z"/><path class="d" d="M29,71.19H27.5a.82.82,0,0,1,0-1.63H29a.82.82,0,0,1,0,1.63Z"/><path class="d" d="M34,71.19H32.5a.82.82,0,0,1,0-1.63H34a.82.82,0,0,1,0,1.63Z"/><path class="d" d="M30.75,74.44a.81.81,0,0,1-.81-.81v-1.5a.82.82,0,0,1,.81-.82.82.82,0,0,1,.82.82v1.5A.82.82,0,0,1,30.75,74.44Z"/><path class="d" d="M30.75,69.44a.82.82,0,0,1-.81-.82v-1.5a.81.81,0,0,1,.81-.81.82.82,0,0,1,.82.81v1.5A.82.82,0,0,1,30.75,69.44Z"/><path class="d" d="M21.41,57.09h-1.5a.82.82,0,0,1-.82-.81.82.82,0,0,1,.82-.82h1.5a.82.82,0,0,1,.81.82A.81.81,0,0,1,21.41,57.09Z"/><path class="d" d="M26.41,57.09h-1.5a.81.81,0,0,1-.81-.81.82.82,0,0,1,.81-.82h1.5a.82.82,0,0,1,.82.82A.82.82,0,0,1,26.41,57.09Z"/><path class="d" d="M23.16,60.34a.81.81,0,0,1-.81-.81V58A.81.81,0,1,1,24,58v1.5A.81.81,0,0,1,23.16,60.34Z"/><path class="d" d="M23.16,55.34a.82.82,0,0,1-.81-.82V53A.81.81,0,1,1,24,53v1.5A.82.82,0,0,1,23.16,55.34Z"/><path class="d" d="M14.49,78.11a.81.81,0,0,1-.81-.81V69a.81.81,0,0,1,1.62,0V77.3A.81.81,0,0,1,14.49,78.11Z"/><path class="d" d="M14.49,65.43a.82.82,0,0,1-.81-.82V62.12a.81.81,0,1,1,1.62,0v2.49A.82.82,0,0,1,14.49,65.43Z"/></svg>