<svg xmlns="http://www.w3.org/2000/svg" viewBox="0 0 100 100"><defs><style>.a{fill:#e7e9f1;}.b{fill:#bdc3d8;}.c{fill:#fff;}.d{fill:#21365f;}</style></defs><circle class="a" cx="62.11" cy="75.25" r="14"/><circle class="a" cx="25.11" cy="55.2" r="12"/><circle class="a" cx="66.89" cy="30.75" r="20"/><rect class="b" x="30.57" y="55.47" width="8.85" height="7.04"/><path class="c" d="M30.57,55.47h6.69a0,0,0,0,1,0,0v4a1,1,0,0,1-1,1H30.57a0,0,0,0,1,0,0v-5A0,0,0,0,1,30.57,55.47Z"/><path class="d" d="M39.43,63.26H30.57a.76.76,0,0,1-.75-.75v-7a.75.75,0,0,1,.75-.75h8.86a.75.75,0,0,1,.75.75v7A.76.76,0,0,1,39.43,63.26Zm-8.11-1.5h7.36V56.22H31.32Z"/><rect class="b" x="28.95" y="62.51" width="12.09" height="13.78"/><path class="c" d="M29,62.51h9a0,0,0,0,1,0,0v8.73a2,2,0,0,1-2,2H29a0,0,0,0,1,0,0V62.51A0,0,0,0,1,29,62.51Z"/><path class="d" d="M41.05,77H29a.75.75,0,0,1-.75-.75V62.51a.75.75,0,0,1,.75-.75h12.1a.75.75,0,0,1,.75.75V76.28A.75.75,0,0,1,41.05,77ZM29.7,75.53H40.3V63.26H29.7Z"/><path class="c" d="M37.68,81.45H32.32A3.36,3.36,0,0,1,29,78.09V76.28h12.1v1.81A3.36,3.36,0,0,1,37.68,81.45Z"/><path class="b" d="M38,76.28v1.81a3.36,3.36,0,0,1-3.36,3.36h3a3.36,3.36,0,0,0,3.37-3.36V76.28Z"/><path class="d" d="M37.68,82.2H32.32a4.12,4.12,0,0,1-4.12-4.11V76.28a.76.76,0,0,1,.75-.75h12.1a.76.76,0,0,1,.75.75v1.81A4.12,4.12,0,0,1,37.68,82.2ZM29.7,77v1.06a2.61,2.61,0,0,0,2.62,2.61h5.36a2.62,2.62,0,0,0,2.62-2.61V77Z"/><path class="c" d="M16.7,29.39A20,20,0,1,1,26.94,55.76,20,20,0,0,1,16.7,29.39Z"/><path class="b" d="M41.1,18.41a20,20,0,0,1-16,36.4,20,20,0,1,0,16-36.4Z"/><path class="d" d="M35,58.2a20.73,20.73,0,1,1,7.49-1.4A20.77,20.77,0,0,1,35,58.2Zm0-40A19.07,19.07,0,0,0,28,19.51h0A19.23,19.23,0,1,0,35,18.2Zm-7.22.61h0Z"/><circle class="c" cx="35" cy="37.45" r="14"/><path class="b" d="M38.07,23.8A14,14,0,0,1,29,48.45a13.5,13.5,0,0,1-3.07-.35A14,14,0,1,0,38.07,23.8Z"/><path class="d" d="M35,52.2A14.75,14.75,0,1,1,49.75,37.45,14.76,14.76,0,0,1,35,52.2Zm0-28A13.25,13.25,0,1,0,48.25,37.45,13.27,13.27,0,0,0,35,24.2Z"/><path class="c" d="M22.89,30.45a13.91,13.91,0,0,0,0,14H65v-14Z"/><path class="b" d="M62,30.45v9a2,2,0,0,1-2,2H21.59a13.61,13.61,0,0,0,1.3,3H65v-14Z"/><path class="d" d="M65,45.2H22.89a.74.74,0,0,1-.65-.37,14.66,14.66,0,0,1,0-14.75.75.75,0,0,1,.65-.38H65a.75.75,0,0,1,.75.75v14A.74.74,0,0,1,65,45.2ZM23.33,43.7H64.25V31.2H23.33a13.15,13.15,0,0,0,0,12.5Z"/><path class="b" d="M65,30.45H77a2,2,0,0,1,2,2v10a2,2,0,0,1-2,2H65a0,0,0,0,1,0,0v-14A0,0,0,0,1,65,30.45Z"/><path class="c" d="M65,30.45H76a0,0,0,0,1,0,0v9a2,2,0,0,1-2,2H65a0,0,0,0,1,0,0v-11A0,0,0,0,1,65,30.45Z"/><path class="d" d="M77,45.2H65a.75.75,0,0,1-.75-.75v-14A.76.76,0,0,1,65,29.7H77a2.75,2.75,0,0,1,2.75,2.75v10A2.75,2.75,0,0,1,77,45.2ZM65.75,43.7H77a1.25,1.25,0,0,0,1.25-1.25v-10A1.25,1.25,0,0,0,77,31.2H65.75Z"/><circle class="c" cx="71" cy="36.45" r="2.5"/><path class="d" d="M71,39.7a3.25,3.25,0,1,1,3.25-3.25A3.26,3.26,0,0,1,71,39.7Zm0-5a1.75,1.75,0,1,0,1.75,1.75A1.76,1.76,0,0,0,71,34.7Z"/><path class="d" d="M76,42.2a.74.74,0,0,1-.53-.22l-3.23-3.23a.75.75,0,0,1,1.06-1.06l3.23,3.23a.74.74,0,0,1,0,1.06A.73.73,0,0,1,76,42.2Z"/><path class="d" d="M53,38.2H38.11a.75.75,0,0,1,0-1.5H53a.75.75,0,0,1,0,1.5Z"/><path class="d" d="M34.11,38.2H25.86a.75.75,0,0,1,0-1.5h8.25a.75.75,0,0,1,0,1.5Z"/><path class="d" d="M76,82.2H69.5a.75.75,0,0,1,0-1.5H76a.75.75,0,0,1,0,1.5Z"/><path class="d" d="M65.5,82.2H59.2a.75.75,0,0,1,0-1.5h6.3a.75.75,0,0,1,0,1.5Z"/><path class="d" d="M55.2,82.2H45.68a.75.75,0,1,1,0-1.5H55.2a.75.75,0,0,1,0,1.5Z"/><path class="d" d="M79,76.2H68.5a.75.75,0,0,1,0-1.5H79a.75.75,0,0,1,0,1.5Z"/><path class="d" d="M64.5,76.2H55.2a.75.75,0,0,1,0-1.5h9.3a.75.75,0,0,1,0,1.5Z"/><path class="d" d="M51.2,76.2H45.68a.75.75,0,1,1,0-1.5H51.2a.75.75,0,0,1,0,1.5Z"/><path class="d" d="M72.5,70.2H58.2a.75.75,0,0,1,0-1.5H72.5a.75.75,0,0,1,0,1.5Z"/><path class="d" d="M54.2,70.2H45.68a.75.75,0,1,1,0-1.5H54.2a.75.75,0,0,1,0,1.5Z"/><path class="d" d="M76,64.2H65.5a.75.75,0,0,1,0-1.5H76a.75.75,0,0,1,0,1.5Z"/><path class="d" d="M61.5,64.2H57.2a.75.75,0,0,1,0-1.5h4.3a.75.75,0,0,1,0,1.5Z"/><path class="d" d="M53.2,64.2H45.68a.75.75,0,1,1,0-1.5H53.2a.75.75,0,0,1,0,1.5Z"/><path class="d" d="M79,58.2H74.5a.75.75,0,0,1,0-1.5H79a.75.75,0,0,1,0,1.5Z"/><path class="d" d="M70.5,58.2H62.2a.75.75,0,0,1,0-1.5h8.3a.75.75,0,0,1,0,1.5Z"/><path class="d" d="M58.2,58.2H49.68a.75.75,0,1,1,0-1.5H58.2a.75.75,0,0,1,0,1.5Z"/><path class="d" d="M57.94,20.2h-4a.75.75,0,0,1,0-1.5h4a.75.75,0,0,1,0,1.5Z"/><path class="d" d="M55.94,22.2a.75.75,0,0,1-.75-.75v-4a.75.75,0,0,1,1.5,0v4A.75.75,0,0,1,55.94,22.2Z"/><path class="d" d="M70.94,25.2h-4a.75.75,0,0,1,0-1.5h4a.75.75,0,0,1,0,1.5Z"/><path class="d" d="M68.94,27.2a.75.75,0,0,1-.75-.75v-4a.75.75,0,0,1,1.5,0v4A.75.75,0,0,1,68.94,27.2Z"/><path class="d" d="M79,20.2H75a.75.75,0,0,1,0-1.5h4a.75.75,0,0,1,0,1.5Z"/><path class="d" d="M77,22.2a.75.75,0,0,1-.75-.75v-4a.75.75,0,0,1,1.5,0v4A.74.74,0,0,1,77,22.2Z"/></svg>